<mxfile host="drawio-plugin" modified="2022-03-21T19:40:49.306Z" agent="5.0 (Macintosh; Intel Mac OS X 12_2_1) AppleWebKit/537.36 (KHTML, like Gecko) Chrome/89.0.4389.114 Safari/537.36" etag="rfAGAsWxDE8p4w2IYBkS" version="15.5.4" type="embed" pages="4"><diagram id="jGPQBrAC3FD5LckJL6nq" name="Page-1"><mxGraphModel dx="565" dy="336" grid="1" gridSize="10" guides="1" tooltips="1" connect="1" arrows="1" fold="1" page="1" pageScale="1" pageWidth="827" pageHeight="1169" background="none" math="0" shadow="0"><root><mxCell id="0"/><mxCell id="1" parent="0"/><mxCell id="kjqFuy661nHcV7uck-8Y-54" value="" style="strokeWidth=1;shadow=0;dashed=0;align=center;html=1;shape=mxgraph.mockup.graphics.rrect;rSize=0;strokeColor=#999999;" parent="1" vertex="1"><mxGeometry x="120" y="80" width="530" height="400" as="geometry"/></mxCell><mxCell id="kjqFuy661nHcV7uck-8Y-55" value="#" style="strokeColor=inherit;fillColor=inherit;gradientColor=inherit;strokeWidth=1;shadow=0;dashed=0;align=center;html=1;shape=mxgraph.mockup.graphics.rrect;rSize=0;fontColor=#666666;" parent="kjqFuy661nHcV7uck-8Y-54" vertex="1"><mxGeometry width="12.61904761904762" height="53.33333333333333" as="geometry"/></mxCell><mxCell id="kjqFuy661nHcV7uck-8Y-56" value="Tours" style="strokeColor=inherit;fillColor=inherit;gradientColor=inherit;strokeWidth=1;shadow=0;dashed=0;align=center;html=1;shape=mxgraph.mockup.graphics.rrect;rSize=0;fontColor=#666666;" parent="kjqFuy661nHcV7uck-8Y-54" vertex="1"><mxGeometry x="12.62157142857143" width="25.235571428571426" height="53.33" as="geometry"/></mxCell><mxCell id="kjqFuy661nHcV7uck-8Y-57" value="+" style="strokeColor=inherit;fillColor=inherit;gradientColor=inherit;strokeWidth=1;shadow=0;dashed=0;align=center;html=1;shape=mxgraph.mockup.graphics.rrect;rSize=0;fontColor=#666666;" parent="kjqFuy661nHcV7uck-8Y-54" vertex="1"><mxGeometry x="37.857142857142854" width="22.714285714285715" height="53.33" as="geometry"/></mxCell><mxCell id="kjqFuy661nHcV7uck-8Y-58" value="-" style="strokeColor=inherit;fillColor=inherit;gradientColor=inherit;strokeWidth=1;shadow=0;dashed=0;align=center;html=1;shape=mxgraph.mockup.graphics.rrect;rSize=0;fontColor=#666666;" parent="kjqFuy661nHcV7uck-8Y-54" vertex="1"><mxGeometry x="60.57142857142857" width="22.714285714285715" height="53.33" as="geometry"/></mxCell><mxCell id="kjqFuy661nHcV7uck-8Y-59" value="Title" style="strokeColor=inherit;fillColor=inherit;gradientColor=inherit;strokeWidth=1;shadow=0;dashed=0;align=center;html=1;shape=mxgraph.mockup.graphics.rrect;rSize=0;fontColor=#666666;" parent="kjqFuy661nHcV7uck-8Y-54" vertex="1"><mxGeometry x="151.42857142857142" width="132.5" height="26.666666666666664" as="geometry"/></mxCell><mxCell id="kjqFuy661nHcV7uck-8Y-61" value="M" style="strokeColor=inherit;fillColor=inherit;gradientColor=inherit;strokeWidth=1;shadow=0;dashed=0;align=center;html=1;shape=mxgraph.mockup.graphics.rrect;rSize=0;;fontColor=#666666;" parent="kjqFuy661nHcV7uck-8Y-54" vertex="1"><mxGeometry x="151.42857142857142" y="26.666666666666664" width="18.928571428571427" height="26.666666666666664" as="geometry"/></mxCell><mxCell id="kjqFuy661nHcV7uck-8Y-64" value="T" style="strokeColor=inherit;fillColor=inherit;gradientColor=inherit;strokeWidth=1;shadow=0;dashed=0;align=center;html=1;shape=mxgraph.mockup.graphics.rrect;rSize=0;fontColor=#666666;" parent="kjqFuy661nHcV7uck-8Y-54" vertex="1"><mxGeometry x="208.2142857142857" y="26.666666666666664" width="18.928571428571427" height="26.666666666666664" as="geometry"/></mxCell><mxCell id="kjqFuy661nHcV7uck-8Y-65" value="F" style="strokeColor=inherit;fillColor=inherit;gradientColor=inherit;strokeWidth=1;shadow=0;dashed=0;align=center;html=1;shape=mxgraph.mockup.graphics.rrect;rSize=0;fontColor=#666666;" parent="kjqFuy661nHcV7uck-8Y-54" vertex="1"><mxGeometry x="227.14285714285714" y="26.666666666666664" width="18.928571428571427" height="26.666666666666664" as="geometry"/></mxCell><mxCell id="kjqFuy661nHcV7uck-8Y-66" value="S" style="strokeColor=inherit;fillColor=inherit;gradientColor=inherit;strokeWidth=1;shadow=0;dashed=0;align=center;html=1;shape=mxgraph.mockup.graphics.rrect;rSize=0;fontColor=#666666;" parent="kjqFuy661nHcV7uck-8Y-54" vertex="1"><mxGeometry x="246.07142857142856" y="26.666666666666664" width="18.928571428571427" height="26.666666666666664" as="geometry"/></mxCell><mxCell id="kjqFuy661nHcV7uck-8Y-68" value="M" style="strokeColor=inherit;fillColor=inherit;gradientColor=inherit;strokeWidth=1;shadow=0;dashed=0;align=center;html=1;shape=mxgraph.mockup.graphics.rrect;rSize=0;fontColor=#666666;" parent="kjqFuy661nHcV7uck-8Y-54" vertex="1"><mxGeometry x="283.92857142857144" y="26.666666666666664" width="18.928571428571427" height="26.666666666666664" as="geometry"/></mxCell><mxCell id="kjqFuy661nHcV7uck-8Y-69" value="T" style="strokeColor=inherit;fillColor=inherit;gradientColor=inherit;strokeWidth=1;shadow=0;dashed=0;align=center;html=1;shape=mxgraph.mockup.graphics.rrect;rSize=0;fontColor=#666666;" parent="kjqFuy661nHcV7uck-8Y-54" vertex="1"><mxGeometry x="302.85714285714283" y="26.666666666666664" width="18.928571428571427" height="26.666666666666664" as="geometry"/></mxCell><mxCell id="kjqFuy661nHcV7uck-8Y-70" value="W" style="strokeColor=inherit;fillColor=inherit;gradientColor=inherit;strokeWidth=1;shadow=0;dashed=0;align=center;html=1;shape=mxgraph.mockup.graphics.rrect;rSize=0;fontColor=#666666;" parent="kjqFuy661nHcV7uck-8Y-54" vertex="1"><mxGeometry x="321.7857142857143" y="26.666666666666664" width="18.928571428571427" height="26.666666666666664" as="geometry"/></mxCell><mxCell id="kjqFuy661nHcV7uck-8Y-71" value="T" style="strokeColor=inherit;fillColor=inherit;gradientColor=inherit;strokeWidth=1;shadow=0;dashed=0;align=center;html=1;shape=mxgraph.mockup.graphics.rrect;rSize=0;fontColor=#666666;" parent="kjqFuy661nHcV7uck-8Y-54" vertex="1"><mxGeometry x="340.7142857142857" y="26.666666666666664" width="18.928571428571427" height="26.666666666666664" as="geometry"/></mxCell><mxCell id="kjqFuy661nHcV7uck-8Y-72" value="F" style="strokeColor=inherit;fillColor=inherit;gradientColor=inherit;strokeWidth=1;shadow=0;dashed=0;align=center;html=1;shape=mxgraph.mockup.graphics.rrect;rSize=0;fontColor=#666666;" parent="kjqFuy661nHcV7uck-8Y-54" vertex="1"><mxGeometry x="359.6428571428571" y="26.666666666666664" width="18.928571428571427" height="26.666666666666664" as="geometry"/></mxCell><mxCell id="kjqFuy661nHcV7uck-8Y-73" value="" style="strokeColor=inherit;fillColor=inherit;gradientColor=inherit;strokeWidth=1;shadow=0;dashed=0;align=center;html=1;shape=mxgraph.mockup.graphics.rrect;rSize=0;fontColor=#666666;" parent="kjqFuy661nHcV7uck-8Y-54" vertex="1"><mxGeometry y="53.33" width="151.42857142857142" height="346.67" as="geometry"/></mxCell><mxCell id="kjqFuy661nHcV7uck-8Y-80" value="1" style="strokeWidth=1;shadow=0;dashed=0;align=center;html=1;shape=mxgraph.mockup.graphics.anchor;fontColor=#666666;" parent="kjqFuy661nHcV7uck-8Y-54" vertex="1"><mxGeometry y="53.33333333333333" width="12.61904761904762" height="26.666666666666664" as="geometry"/></mxCell><mxCell id="kjqFuy661nHcV7uck-8Y-81" value="Tour 1" style="strokeWidth=1;shadow=0;dashed=0;align=center;html=1;shape=mxgraph.mockup.graphics.anchor;fontColor=#666666;" parent="kjqFuy661nHcV7uck-8Y-54" vertex="1"><mxGeometry x="12.61904761904762" y="53.33333333333333" width="25.23809523809524" height="26.666666666666664" as="geometry"/></mxCell><mxCell id="kjqFuy661nHcV7uck-8Y-82" value="" style="strokeWidth=1;shadow=0;dashed=0;align=center;html=1;shape=mxgraph.mockup.graphics.anchor;fontColor=#666666;" parent="kjqFuy661nHcV7uck-8Y-54" vertex="1"><mxGeometry x="37.857142857142854" y="53.33333333333333" width="82.02380952380953" height="26.666666666666664" as="geometry"/></mxCell><mxCell id="kjqFuy661nHcV7uck-8Y-83" value="" style="strokeWidth=1;shadow=0;dashed=0;align=center;html=1;shape=mxgraph.mockup.graphics.anchor;fontColor=#666666;" parent="kjqFuy661nHcV7uck-8Y-54" vertex="1"><mxGeometry x="119.88095238095238" y="53.33333333333333" width="31.54761904761905" height="26.666666666666664" as="geometry"/></mxCell><mxCell id="kjqFuy661nHcV7uck-8Y-84" value="2" style="strokeWidth=1;shadow=0;dashed=0;align=center;html=1;shape=mxgraph.mockup.graphics.anchor;fontColor=#666666;" parent="kjqFuy661nHcV7uck-8Y-54" vertex="1"><mxGeometry y="80" width="12.61904761904762" height="26.666666666666664" as="geometry"/></mxCell><mxCell id="kjqFuy661nHcV7uck-8Y-85" value="Tour 2" style="strokeWidth=1;shadow=0;dashed=0;align=center;html=1;shape=mxgraph.mockup.graphics.anchor;fontColor=#666666;" parent="kjqFuy661nHcV7uck-8Y-54" vertex="1"><mxGeometry x="12.61904761904762" y="80" width="25.23809523809524" height="26.666666666666664" as="geometry"/></mxCell><mxCell id="kjqFuy661nHcV7uck-8Y-86" value="" style="strokeWidth=1;shadow=0;dashed=0;align=center;html=1;shape=mxgraph.mockup.graphics.anchor;fontColor=#666666;" parent="kjqFuy661nHcV7uck-8Y-54" vertex="1"><mxGeometry x="37.857142857142854" y="80" width="82.02380952380953" height="26.666666666666664" as="geometry"/></mxCell><mxCell id="kjqFuy661nHcV7uck-8Y-88" value="3" style="strokeWidth=1;shadow=0;dashed=0;align=center;html=1;shape=mxgraph.mockup.graphics.anchor;fontColor=#666666;" parent="kjqFuy661nHcV7uck-8Y-54" vertex="1"><mxGeometry y="106.66666666666666" width="12.61904761904762" height="26.666666666666664" as="geometry"/></mxCell><mxCell id="kjqFuy661nHcV7uck-8Y-89" value="Tour 3" style="strokeWidth=1;shadow=0;dashed=0;align=center;html=1;shape=mxgraph.mockup.graphics.anchor;fontColor=#666666;" parent="kjqFuy661nHcV7uck-8Y-54" vertex="1"><mxGeometry x="12.61904761904762" y="106.66666666666666" width="25.23809523809524" height="26.666666666666664" as="geometry"/></mxCell><mxCell id="kjqFuy661nHcV7uck-8Y-90" value="" style="strokeWidth=1;shadow=0;dashed=0;align=center;html=1;shape=mxgraph.mockup.graphics.anchor;fontColor=#666666;" parent="kjqFuy661nHcV7uck-8Y-54" vertex="1"><mxGeometry x="37.857142857142854" y="106.66666666666666" width="82.02380952380953" height="26.666666666666664" as="geometry"/></mxCell><mxCell id="kjqFuy661nHcV7uck-8Y-92" value="4" style="strokeWidth=1;shadow=0;dashed=0;align=center;html=1;shape=mxgraph.mockup.graphics.anchor;fontColor=#666666;" parent="kjqFuy661nHcV7uck-8Y-54" vertex="1"><mxGeometry y="133.33333333333331" width="12.61904761904762" height="26.666666666666664" as="geometry"/></mxCell><mxCell id="kjqFuy661nHcV7uck-8Y-93" value="Tour 4" style="strokeWidth=1;shadow=0;dashed=0;align=center;html=1;shape=mxgraph.mockup.graphics.anchor;fontColor=#666666;" parent="kjqFuy661nHcV7uck-8Y-54" vertex="1"><mxGeometry x="12.61904761904762" y="133.33333333333331" width="25.23809523809524" height="26.666666666666664" as="geometry"/></mxCell><mxCell id="kjqFuy661nHcV7uck-8Y-94" value="" style="strokeWidth=1;shadow=0;dashed=0;align=center;html=1;shape=mxgraph.mockup.graphics.anchor;fontColor=#666666;" parent="kjqFuy661nHcV7uck-8Y-54" vertex="1"><mxGeometry x="37.857142857142854" y="133.33333333333331" width="82.02380952380953" height="26.666666666666664" as="geometry"/></mxCell><mxCell id="kjqFuy661nHcV7uck-8Y-96" value="" style="strokeWidth=1;shadow=0;dashed=0;align=center;html=1;shape=mxgraph.mockup.graphics.rrect;rSize=0;strokeColor=none;fillColor=#aaddff;" parent="kjqFuy661nHcV7uck-8Y-54" vertex="1"><mxGeometry x="157.73809523809524" y="60" width="82.02380952380953" height="13.333333333333332" as="geometry"/></mxCell><mxCell id="kjqFuy661nHcV7uck-8Y-97" value="" style="strokeWidth=1;shadow=0;dashed=0;align=center;html=1;shape=mxgraph.mockup.graphics.rrect;rSize=0;strokeColor=none;fillColor=#aaddff;" parent="kjqFuy661nHcV7uck-8Y-54" vertex="1"><mxGeometry x="157.73809523809524" y="86.66666666666666" width="25.23809523809524" height="13.333333333333332" as="geometry"/></mxCell><mxCell id="kjqFuy661nHcV7uck-8Y-98" value="" style="strokeWidth=1;shadow=0;dashed=0;align=center;html=1;shape=mxgraph.mockup.graphics.rrect;rSize=0;strokeColor=none;fillColor=#aaddff;" parent="kjqFuy661nHcV7uck-8Y-54" vertex="1"><mxGeometry x="176.66666666666666" y="113.33333333333333" width="63.0952380952381" height="13.333333333333332" as="geometry"/></mxCell><mxCell id="kjqFuy661nHcV7uck-8Y-99" value="" style="strokeWidth=1;shadow=0;dashed=0;align=center;html=1;shape=mxgraph.mockup.graphics.rrect;rSize=0;strokeColor=none;fillColor=#aaddff;" parent="kjqFuy661nHcV7uck-8Y-54" vertex="1"><mxGeometry x="214.52380952380955" y="140" width="44.166666666666664" height="13.333333333333332" as="geometry"/></mxCell><mxCell id="kjqFuy661nHcV7uck-8Y-108" value="Route" style="strokeWidth=1;shadow=0;dashed=0;align=center;html=1;shape=mxgraph.mockup.text.textBox;fontColor=#666666;align=left;fontSize=17;spacingLeft=4;spacingTop=-3;strokeColor=#666666;mainText=" parent="kjqFuy661nHcV7uck-8Y-54" vertex="1"><mxGeometry x="151.42857142857142" y="25" width="113.57142857142857" height="30" as="geometry"/></mxCell><mxCell id="kjqFuy661nHcV7uck-8Y-109" value="Description" style="strokeWidth=1;shadow=0;dashed=0;align=center;html=1;shape=mxgraph.mockup.text.textBox;fontColor=#666666;align=left;fontSize=17;spacingLeft=4;spacingTop=-3;strokeColor=#666666;mainText=" parent="kjqFuy661nHcV7uck-8Y-54" vertex="1"><mxGeometry x="265" y="25" width="136.28571428571428" height="30" as="geometry"/></mxCell><mxCell id="kjqFuy661nHcV7uck-8Y-112" value="" style="strokeWidth=1;shadow=0;dashed=0;align=center;html=1;shape=mxgraph.mockup.text.textBox;fontColor=#666666;align=left;fontSize=17;spacingLeft=4;spacingTop=-3;strokeColor=#666666;mainText=" parent="kjqFuy661nHcV7uck-8Y-54" vertex="1"><mxGeometry x="151.43" y="55" width="378.57" height="155" as="geometry"/></mxCell><mxCell id="kjqFuy661nHcV7uck-8Y-113" value="&lt;table cellpadding=&quot;4&quot; cellspacing=&quot;0&quot; border=&quot;1&quot; style=&quot;font-size: 1em ; width: 100% ; height: 100%&quot;&gt;&lt;tbody&gt;&lt;tr&gt;&lt;th&gt;Distance&lt;/th&gt;&lt;th&gt;.......&lt;/th&gt;&lt;/tr&gt;&lt;tr&gt;&lt;td&gt;10km&lt;/td&gt;&lt;td&gt;&lt;br&gt;&lt;/td&gt;&lt;/tr&gt;&lt;tr&gt;&lt;td&gt;&lt;/td&gt;&lt;td&gt;&lt;br&gt;&lt;/td&gt;&lt;/tr&gt;&lt;/tbody&gt;&lt;/table&gt; " style="verticalAlign=top;align=left;overflow=fill;fontSize=12;fontFamily=Helvetica;html=1" parent="kjqFuy661nHcV7uck-8Y-54" vertex="1"><mxGeometry x="360" y="250" width="170" height="150" as="geometry"/></mxCell><mxCell id="kjqFuy661nHcV7uck-8Y-121" value="" style="strokeWidth=1;shadow=0;dashed=0;align=center;html=1;shape=mxgraph.mockup.text.rrect;rSize=0;strokeColor=#666666;" parent="kjqFuy661nHcV7uck-8Y-54" vertex="1"><mxGeometry x="151.43" y="210" width="378.57" height="40" as="geometry"/></mxCell><mxCell id="kjqFuy661nHcV7uck-8Y-122" value="+ - []" style="strokeColor=inherit;fillColor=inherit;gradientColor=inherit;strokeWidth=1;shadow=0;dashed=0;align=center;html=1;shape=mxgraph.mockup.text.rrect;rSize=0;fontSize=17;fontColor=#0000ff;" parent="kjqFuy661nHcV7uck-8Y-121" vertex="1"><mxGeometry x="286.7954545454545" width="91.77454545454545" height="40" as="geometry"/></mxCell><mxCell id="kjqFuy661nHcV7uck-8Y-123" value="" style="strokeColor=inherit;fillColor=inherit;gradientColor=inherit;strokeWidth=1;shadow=0;dashed=0;align=center;html=1;shape=mxgraph.mockup.text.rrect;rSize=0;fontSize=17;fontColor=#0000ff;" parent="kjqFuy661nHcV7uck-8Y-121" vertex="1"><mxGeometry x="378.57" height="40" as="geometry"/></mxCell><mxCell id="kjqFuy661nHcV7uck-8Y-125" value="Logs" style="strokeWidth=1;shadow=0;dashed=0;align=center;html=1;shape=mxgraph.mockup.text.rrect;rSize=0;fontSize=17;fontColor=#ffffff;fillColor=#008cff;strokeColor=#008cff;" parent="kjqFuy661nHcV7uck-8Y-121" vertex="1"><mxGeometry width="298.2672727272727" height="40" as="geometry"/></mxCell><mxCell id="kjqFuy661nHcV7uck-8Y-100" value="" style="strokeWidth=1;shadow=0;dashed=0;align=center;html=1;shape=mxgraph.mockup.rrect;rSize=10;fillColor=#ffffff;strokeColor=#666666;" parent="1" vertex="1"><mxGeometry x="120" width="530" height="50" as="geometry"/></mxCell><mxCell id="kjqFuy661nHcV7uck-8Y-101" value="Edit" style="strokeColor=inherit;fillColor=inherit;gradientColor=inherit;strokeWidth=1;shadow=0;dashed=0;align=center;html=1;shape=mxgraph.mockup.rrect;rSize=0;fontSize=17;fontColor=#666666;fontStyle=1;resizeHeight=1;" parent="kjqFuy661nHcV7uck-8Y-100" vertex="1"><mxGeometry width="125" height="50" relative="1" as="geometry"><mxPoint x="125" as="offset"/></mxGeometry></mxCell><mxCell id="kjqFuy661nHcV7uck-8Y-102" value="Options" style="strokeColor=inherit;fillColor=inherit;gradientColor=inherit;strokeWidth=1;shadow=0;dashed=0;align=center;html=1;shape=mxgraph.mockup.rrect;rSize=0;fontSize=17;fontColor=#666666;fontStyle=1;resizeHeight=1;" parent="kjqFuy661nHcV7uck-8Y-100" vertex="1"><mxGeometry width="125" height="50" relative="1" as="geometry"><mxPoint x="250" as="offset"/></mxGeometry></mxCell><mxCell id="kjqFuy661nHcV7uck-8Y-103" value="Help" style="strokeColor=inherit;fillColor=inherit;gradientColor=inherit;strokeWidth=1;shadow=0;dashed=0;align=center;html=1;shape=mxgraph.mockup.rightButton;rSize=10;fontSize=17;fontColor=#666666;fontStyle=1;resizeHeight=1;" parent="kjqFuy661nHcV7uck-8Y-100" vertex="1"><mxGeometry x="1" width="125" height="50" relative="1" as="geometry"><mxPoint x="-125" as="offset"/></mxGeometry></mxCell><mxCell id="kjqFuy661nHcV7uck-8Y-104" value="File" style="strokeWidth=1;shadow=0;dashed=0;align=center;html=1;shape=mxgraph.mockup.leftButton;rSize=10;fontSize=17;fontColor=#ffffff;fontStyle=1;fillColor=#008cff;strokeColor=#008cff;resizeHeight=1;" parent="kjqFuy661nHcV7uck-8Y-100" vertex="1"><mxGeometry width="125" height="50" relative="1" as="geometry"/></mxCell><mxCell id="kjqFuy661nHcV7uck-8Y-105" value="Search" style="strokeWidth=1;shadow=0;dashed=0;align=center;html=1;shape=mxgraph.mockup.text.textBox;fontColor=#666666;align=left;fontSize=17;spacingLeft=4;spacingTop=-3;strokeColor=#666666;mainText=" parent="1" vertex="1"><mxGeometry x="120" y="50" width="530" height="30" as="geometry"/></mxCell><mxCell id="kjqFuy661nHcV7uck-8Y-111" value="&lt;table cellpadding=&quot;4&quot; cellspacing=&quot;0&quot; border=&quot;1&quot; style=&quot;font-size: 1em ; width: 100% ; height: 100%&quot;&gt;&lt;tbody&gt;&lt;tr&gt;&lt;th&gt;Date&lt;/th&gt;&lt;th&gt;Duration&lt;/th&gt;&lt;/tr&gt;&lt;tr&gt;&lt;td&gt;18.03.2021&lt;/td&gt;&lt;td&gt;01:05:99&lt;/td&gt;&lt;/tr&gt;&lt;tr&gt;&lt;td&gt;18.03.2021&lt;br&gt;&lt;/td&gt;&lt;td&gt;&lt;br&gt;&lt;/td&gt;&lt;/tr&gt;&lt;/tbody&gt;&lt;/table&gt; " style="verticalAlign=top;align=left;overflow=fill;fontSize=12;fontFamily=Helvetica;html=1" parent="1" vertex="1"><mxGeometry x="270" y="330" width="210" height="150" as="geometry"/></mxCell><mxCell id="kjqFuy661nHcV7uck-8Y-115" value="Search" style="strokeWidth=1;shadow=0;dashed=0;align=center;html=1;shape=mxgraph.mockup.forms.searchBox;strokeColor=#999999;mainText=;strokeColor2=#008cff;fontColor=#666666;fontSize=17;align=left;spacingLeft=3;" parent="1" vertex="1"><mxGeometry x="120" y="50" width="150" height="30" as="geometry"/></mxCell></root></mxGraphModel></diagram><diagram id="0rH9CZR_IbWchLSW-Dqg" name="Page-2"><mxGraphModel dx="565" dy="336" grid="1" gridSize="10" guides="1" tooltips="1" connect="1" arrows="1" fold="1" page="1" pageScale="1" pageWidth="827" pageHeight="1169" math="0" shadow="0"><root><mxCell id="UycH-Cs0fMXGiXYjvJwX-0"/><mxCell id="UycH-Cs0fMXGiXYjvJwX-1" parent="UycH-Cs0fMXGiXYjvJwX-0"/><mxCell id="Y8jQ0hqv4_EZdHh-VNTX-0" value="Create Tour" style="strokeWidth=1;shadow=0;dashed=0;align=center;html=1;shape=mxgraph.mockup.containers.window;align=left;verticalAlign=top;spacingLeft=8;strokeColor2=#008cff;strokeColor3=#c4c4c4;fontColor=#666666;mainText=;fontSize=17;labelBackgroundColor=none;" parent="UycH-Cs0fMXGiXYjvJwX-1" vertex="1"><mxGeometry x="100" y="530" width="510" height="540" as="geometry"/></mxCell><mxCell id="Y8jQ0hqv4_EZdHh-VNTX-1" value="Name" style="strokeWidth=1;shadow=0;dashed=0;align=center;html=1;shape=mxgraph.mockup.forms.anchor;align=right;spacingRight=2;fontColor=#666666;" parent="UycH-Cs0fMXGiXYjvJwX-1" vertex="1"><mxGeometry x="100" y="570" width="50" height="18" as="geometry"/></mxCell><mxCell id="Y8jQ0hqv4_EZdHh-VNTX-2" value="Tour name" style="strokeWidth=1;shadow=0;dashed=0;align=center;html=1;shape=mxgraph.mockup.forms.rrect;fillColor=#ffffff;rSize=0;fontColor=#666666;align=left;spacingLeft=3;strokeColor=#999999;" parent="UycH-Cs0fMXGiXYjvJwX-1" vertex="1"><mxGeometry x="239" y="570" width="350" height="18" as="geometry"/></mxCell><mxCell id="Y8jQ0hqv4_EZdHh-VNTX-3" value="From" style="strokeWidth=1;shadow=0;dashed=0;align=center;html=1;shape=mxgraph.mockup.forms.anchor;align=right;spacingRight=2;fontColor=#666666;" parent="UycH-Cs0fMXGiXYjvJwX-1" vertex="1"><mxGeometry x="100" y="605" width="50" height="18" as="geometry"/></mxCell><mxCell id="Y8jQ0hqv4_EZdHh-VNTX-4" value="Greeting" style="strokeWidth=1;shadow=0;dashed=0;align=center;html=1;shape=mxgraph.mockup.forms.rrect;fillColor=#ffffff;rSize=0;fontColor=#666666;align=left;spacingLeft=3;strokeColor=#999999;" parent="UycH-Cs0fMXGiXYjvJwX-1" vertex="1"><mxGeometry x="239" y="605" width="350" height="18" as="geometry"/></mxCell><mxCell id="Y8jQ0hqv4_EZdHh-VNTX-5" value="To" style="strokeWidth=1;shadow=0;dashed=0;align=center;html=1;shape=mxgraph.mockup.forms.anchor;align=right;spacingRight=2;fontColor=#666666;" parent="UycH-Cs0fMXGiXYjvJwX-1" vertex="1"><mxGeometry x="90" y="640" width="50" height="18" as="geometry"/></mxCell><mxCell id="Y8jQ0hqv4_EZdHh-VNTX-6" value="fred@jgraph.com" style="strokeWidth=1;shadow=0;dashed=0;align=center;html=1;shape=mxgraph.mockup.forms.rrect;fillColor=#ffffff;rSize=0;fontColor=#666666;align=left;spacingLeft=3;strokeColor=#999999;" parent="UycH-Cs0fMXGiXYjvJwX-1" vertex="1"><mxGeometry x="239" y="640" width="350" height="18" as="geometry"/></mxCell><mxCell id="Y8jQ0hqv4_EZdHh-VNTX-7" value="Transport type" style="strokeWidth=1;shadow=0;dashed=0;align=center;html=1;shape=mxgraph.mockup.forms.anchor;align=right;spacingRight=2;fontColor=#666666;" parent="UycH-Cs0fMXGiXYjvJwX-1" vertex="1"><mxGeometry x="130" y="675" width="50" height="18" as="geometry"/></mxCell><mxCell id="Y8jQ0hqv4_EZdHh-VNTX-8" value="" style="strokeWidth=1;shadow=0;dashed=0;align=center;html=1;shape=mxgraph.mockup.forms.rrect;fillColor=#ffffff;rSize=0;fontColor=#666666;align=left;spacingLeft=3;strokeColor=#999999;" parent="UycH-Cs0fMXGiXYjvJwX-1" vertex="1"><mxGeometry x="239" y="675" width="350" height="18" as="geometry"/></mxCell><mxCell id="Y8jQ0hqv4_EZdHh-VNTX-9" value="Tour distance" style="strokeWidth=1;shadow=0;dashed=0;align=center;html=1;shape=mxgraph.mockup.forms.anchor;align=right;spacingRight=2;fontColor=#666666;" parent="UycH-Cs0fMXGiXYjvJwX-1" vertex="1"><mxGeometry x="130" y="710" width="50" height="18" as="geometry"/></mxCell><mxCell id="Y8jQ0hqv4_EZdHh-VNTX-10" value="" style="strokeWidth=1;shadow=0;dashed=0;align=center;html=1;shape=mxgraph.mockup.forms.rrect;fillColor=#ffffff;rSize=0;fontColor=#666666;align=left;spacingLeft=3;strokeColor=#999999;" parent="UycH-Cs0fMXGiXYjvJwX-1" vertex="1"><mxGeometry x="239" y="710" width="350" height="18" as="geometry"/></mxCell><mxCell id="Y8jQ0hqv4_EZdHh-VNTX-11" value="Lorem ipsum dolor sit amet, consectetur adipisicing elit, sed do eiusmod tempor incididunt ut labore et dolore magna aliqua. Ut enim ad minim veniam, quis nostrud exercitation ullamco laboris nisi ut aliquip ex ea commodo consequat. Duis aute irure dolor in reprehenderit in voluptate velit esse cillum dolore eu fugiat nulla pariatur. Excepteur sint occaecat cupidatat non proident, sunt in culpa qui officia deserunt mollit anim id est laborum." style="strokeWidth=1;shadow=0;dashed=0;align=center;html=1;shape=mxgraph.mockup.forms.rrect;fillColor=#ffffff;rSize=0;fontColor=#666666;align=left;spacingLeft=3;strokeColor=#999999;verticalAlign=top;whiteSpace=wrap;" parent="UycH-Cs0fMXGiXYjvJwX-1" vertex="1"><mxGeometry x="175" y="870" width="400" height="125" as="geometry"/></mxCell><mxCell id="Y8jQ0hqv4_EZdHh-VNTX-12" value="" style="strokeWidth=1;shadow=0;dashed=0;align=center;html=1;shape=mxgraph.mockup.forms.rrect;fillColor=#ffffff;rSize=0;fontColor=#666666;align=left;spacingLeft=3;strokeColor=#999999;" parent="UycH-Cs0fMXGiXYjvJwX-1" vertex="1"><mxGeometry x="239" y="746" width="350" height="18" as="geometry"/></mxCell><mxCell id="Y8jQ0hqv4_EZdHh-VNTX-13" value="Estimated Time" style="strokeWidth=1;shadow=0;dashed=0;align=center;html=1;shape=mxgraph.mockup.forms.anchor;align=right;spacingRight=2;fontColor=#666666;" parent="UycH-Cs0fMXGiXYjvJwX-1" vertex="1"><mxGeometry x="140" y="720" width="50" height="70" as="geometry"/></mxCell><mxCell id="Y8jQ0hqv4_EZdHh-VNTX-14" value="Upload Tour Image" style="strokeWidth=1;shadow=0;dashed=0;align=center;html=1;shape=mxgraph.mockup.buttons.button;strokeColor=#666666;fontColor=#ffffff;mainText=;buttonStyle=round;fontSize=17;fontStyle=1;fillColor=#008cff;whiteSpace=wrap;" parent="UycH-Cs0fMXGiXYjvJwX-1" vertex="1"><mxGeometry x="280" y="780" width="180" height="50" as="geometry"/></mxCell><mxCell id="Y8jQ0hqv4_EZdHh-VNTX-15" value="Tour Description" style="strokeWidth=1;shadow=0;dashed=0;align=center;html=1;shape=mxgraph.mockup.text.textBox;fontColor=#666666;align=left;fontSize=17;spacingLeft=4;spacingTop=-3;strokeColor=#666666;mainText=" parent="UycH-Cs0fMXGiXYjvJwX-1" vertex="1"><mxGeometry x="175" y="840" width="150" height="30" as="geometry"/></mxCell><mxCell id="Y8jQ0hqv4_EZdHh-VNTX-16" value="" style="html=1;shadow=0;dashed=0;align=center;verticalAlign=middle;shape=mxgraph.arrows2.arrow;dy=0.6;dx=40;direction=south;notch=0;gradientColor=#ffffff;" parent="UycH-Cs0fMXGiXYjvJwX-1" vertex="1"><mxGeometry x="360" y="250" width="70" height="230" as="geometry"/></mxCell><mxCell id="Y8jQ0hqv4_EZdHh-VNTX-17" value="Create Tour" style="strokeWidth=1;shadow=0;dashed=0;align=center;html=1;shape=mxgraph.mockup.text.textBox;fontColor=#666666;align=left;fontSize=17;spacingLeft=4;spacingTop=-3;strokeColor=#666666;mainText=;gradientColor=#ffffff;" parent="UycH-Cs0fMXGiXYjvJwX-1" vertex="1"><mxGeometry x="320" y="200" width="150" height="30" as="geometry"/></mxCell><mxCell id="l-PhoIVrA8m1ALHQFKMx-0" value="Create Tour" style="strokeWidth=1;shadow=0;dashed=0;align=center;html=1;shape=mxgraph.mockup.buttons.button;strokeColor=#666666;fontColor=#ffffff;mainText=;buttonStyle=round;fontSize=17;fontStyle=1;fillColor=#008cff;whiteSpace=wrap;" parent="UycH-Cs0fMXGiXYjvJwX-1" vertex="1"><mxGeometry x="300" y="1010" width="150" height="50" as="geometry"/></mxCell></root></mxGraphModel></diagram><diagram id="2HlHWkAQZN-z_GIeGYqj" name="Page-3"><mxGraphModel dx="565" dy="336" grid="1" gridSize="10" guides="1" tooltips="1" connect="1" arrows="1" fold="1" page="1" pageScale="1" pageWidth="827" pageHeight="1169" math="0" shadow="0"><root><mxCell id="fWF6z8NE7XelfmBL0G0z-0"/><mxCell id="fWF6z8NE7XelfmBL0G0z-1" parent="fWF6z8NE7XelfmBL0G0z-0"/><mxCell id="fWF6z8NE7XelfmBL0G0z-2" value="Edit Tour" style="strokeWidth=1;shadow=0;dashed=0;align=center;html=1;shape=mxgraph.mockup.containers.window;align=left;verticalAlign=top;spacingLeft=8;strokeColor2=#008cff;strokeColor3=#c4c4c4;fontColor=#666666;mainText=;fontSize=17;labelBackgroundColor=none;" parent="fWF6z8NE7XelfmBL0G0z-1" vertex="1"><mxGeometry x="100" y="530" width="520" height="530" as="geometry"/></mxCell><mxCell id="fWF6z8NE7XelfmBL0G0z-3" value="Name" style="strokeWidth=1;shadow=0;dashed=0;align=center;html=1;shape=mxgraph.mockup.forms.anchor;align=right;spacingRight=2;fontColor=#666666;" parent="fWF6z8NE7XelfmBL0G0z-1" vertex="1"><mxGeometry x="100" y="570" width="50" height="18" as="geometry"/></mxCell><mxCell id="fWF6z8NE7XelfmBL0G0z-4" value="Tour name" style="strokeWidth=1;shadow=0;dashed=0;align=center;html=1;shape=mxgraph.mockup.forms.rrect;fillColor=#ffffff;rSize=0;fontColor=#666666;align=left;spacingLeft=3;strokeColor=#999999;" parent="fWF6z8NE7XelfmBL0G0z-1" vertex="1"><mxGeometry x="239" y="570" width="350" height="18" as="geometry"/></mxCell><mxCell id="fWF6z8NE7XelfmBL0G0z-5" value="From" style="strokeWidth=1;shadow=0;dashed=0;align=center;html=1;shape=mxgraph.mockup.forms.anchor;align=right;spacingRight=2;fontColor=#666666;" parent="fWF6z8NE7XelfmBL0G0z-1" vertex="1"><mxGeometry x="100" y="605" width="50" height="18" as="geometry"/></mxCell><mxCell id="fWF6z8NE7XelfmBL0G0z-6" value="London" style="strokeWidth=1;shadow=0;dashed=0;align=center;html=1;shape=mxgraph.mockup.forms.rrect;fillColor=#ffffff;rSize=0;fontColor=#666666;align=left;spacingLeft=3;strokeColor=#999999;" parent="fWF6z8NE7XelfmBL0G0z-1" vertex="1"><mxGeometry x="239" y="605" width="350" height="18" as="geometry"/></mxCell><mxCell id="fWF6z8NE7XelfmBL0G0z-7" value="To" style="strokeWidth=1;shadow=0;dashed=0;align=center;html=1;shape=mxgraph.mockup.forms.anchor;align=right;spacingRight=2;fontColor=#666666;" parent="fWF6z8NE7XelfmBL0G0z-1" vertex="1"><mxGeometry x="90" y="640" width="50" height="18" as="geometry"/></mxCell><mxCell id="fWF6z8NE7XelfmBL0G0z-8" value="Wien" style="strokeWidth=1;shadow=0;dashed=0;align=center;html=1;shape=mxgraph.mockup.forms.rrect;fillColor=#ffffff;rSize=0;fontColor=#666666;align=left;spacingLeft=3;strokeColor=#999999;" parent="fWF6z8NE7XelfmBL0G0z-1" vertex="1"><mxGeometry x="239" y="640" width="350" height="18" as="geometry"/></mxCell><mxCell id="fWF6z8NE7XelfmBL0G0z-9" value="Transport type" style="strokeWidth=1;shadow=0;dashed=0;align=center;html=1;shape=mxgraph.mockup.forms.anchor;align=right;spacingRight=2;fontColor=#666666;" parent="fWF6z8NE7XelfmBL0G0z-1" vertex="1"><mxGeometry x="130" y="675" width="50" height="18" as="geometry"/></mxCell><mxCell id="fWF6z8NE7XelfmBL0G0z-10" value="" style="strokeWidth=1;shadow=0;dashed=0;align=center;html=1;shape=mxgraph.mockup.forms.rrect;fillColor=#ffffff;rSize=0;fontColor=#666666;align=left;spacingLeft=3;strokeColor=#999999;" parent="fWF6z8NE7XelfmBL0G0z-1" vertex="1"><mxGeometry x="239" y="675" width="350" height="18" as="geometry"/></mxCell><mxCell id="fWF6z8NE7XelfmBL0G0z-11" value="Tour distance" style="strokeWidth=1;shadow=0;dashed=0;align=center;html=1;shape=mxgraph.mockup.forms.anchor;align=right;spacingRight=2;fontColor=#666666;" parent="fWF6z8NE7XelfmBL0G0z-1" vertex="1"><mxGeometry x="130" y="710" width="50" height="18" as="geometry"/></mxCell><mxCell id="fWF6z8NE7XelfmBL0G0z-12" value="" style="strokeWidth=1;shadow=0;dashed=0;align=center;html=1;shape=mxgraph.mockup.forms.rrect;fillColor=#ffffff;rSize=0;fontColor=#666666;align=left;spacingLeft=3;strokeColor=#999999;" parent="fWF6z8NE7XelfmBL0G0z-1" vertex="1"><mxGeometry x="239" y="710" width="350" height="18" as="geometry"/></mxCell><mxCell id="fWF6z8NE7XelfmBL0G0z-13" value="Lorem ipsum dolor sit amet, consectetur adipisicing elit, sed do eiusmod tempor incididunt ut labore et dolore magna aliqua. Ut enim ad minim veniam, quis nostrud exercitation ullamco laboris nisi ut aliquip ex ea commodo consequat. Duis aute irure dolor in reprehenderit in voluptate velit esse cillum dolore eu fugiat nulla pariatur. Excepteur sint occaecat cupidatat non proident, sunt in culpa qui officia deserunt mollit anim id est laborum." style="strokeWidth=1;shadow=0;dashed=0;align=center;html=1;shape=mxgraph.mockup.forms.rrect;fillColor=#ffffff;rSize=0;fontColor=#666666;align=left;spacingLeft=3;strokeColor=#999999;verticalAlign=top;whiteSpace=wrap;" parent="fWF6z8NE7XelfmBL0G0z-1" vertex="1"><mxGeometry x="175" y="870" width="400" height="125" as="geometry"/></mxCell><mxCell id="fWF6z8NE7XelfmBL0G0z-14" value="" style="strokeWidth=1;shadow=0;dashed=0;align=center;html=1;shape=mxgraph.mockup.forms.rrect;fillColor=#ffffff;rSize=0;fontColor=#666666;align=left;spacingLeft=3;strokeColor=#999999;" parent="fWF6z8NE7XelfmBL0G0z-1" vertex="1"><mxGeometry x="239" y="746" width="350" height="18" as="geometry"/></mxCell><mxCell id="fWF6z8NE7XelfmBL0G0z-15" value="Estimated Time" style="strokeWidth=1;shadow=0;dashed=0;align=center;html=1;shape=mxgraph.mockup.forms.anchor;align=right;spacingRight=2;fontColor=#666666;" parent="fWF6z8NE7XelfmBL0G0z-1" vertex="1"><mxGeometry x="140" y="720" width="50" height="70" as="geometry"/></mxCell><mxCell id="fWF6z8NE7XelfmBL0G0z-16" value="Upload Tour Image" style="strokeWidth=1;shadow=0;dashed=0;align=center;html=1;shape=mxgraph.mockup.buttons.button;strokeColor=#666666;fontColor=#ffffff;mainText=;buttonStyle=round;fontSize=17;fontStyle=1;fillColor=#008cff;whiteSpace=wrap;" parent="fWF6z8NE7XelfmBL0G0z-1" vertex="1"><mxGeometry x="280" y="780" width="180" height="50" as="geometry"/></mxCell><mxCell id="fWF6z8NE7XelfmBL0G0z-17" value="Tour Description" style="strokeWidth=1;shadow=0;dashed=0;align=center;html=1;shape=mxgraph.mockup.text.textBox;fontColor=#666666;align=left;fontSize=17;spacingLeft=4;spacingTop=-3;strokeColor=#666666;mainText=" parent="fWF6z8NE7XelfmBL0G0z-1" vertex="1"><mxGeometry x="175" y="840" width="150" height="30" as="geometry"/></mxCell><mxCell id="fWF6z8NE7XelfmBL0G0z-18" value="" style="html=1;shadow=0;dashed=0;align=center;verticalAlign=middle;shape=mxgraph.arrows2.arrow;dy=0.6;dx=40;direction=south;notch=0;gradientColor=#ffffff;" parent="fWF6z8NE7XelfmBL0G0z-1" vertex="1"><mxGeometry x="360" y="250" width="70" height="230" as="geometry"/></mxCell><mxCell id="fWF6z8NE7XelfmBL0G0z-19" value="Edit Tour" style="strokeWidth=1;shadow=0;dashed=0;align=center;html=1;shape=mxgraph.mockup.text.textBox;fontColor=#666666;align=left;fontSize=17;spacingLeft=4;spacingTop=-3;strokeColor=#666666;mainText=;gradientColor=#ffffff;" parent="fWF6z8NE7XelfmBL0G0z-1" vertex="1"><mxGeometry x="320" y="200" width="150" height="30" as="geometry"/></mxCell><mxCell id="fWF6z8NE7XelfmBL0G0z-20" value="Save" style="strokeWidth=1;shadow=0;dashed=0;align=center;html=1;shape=mxgraph.mockup.buttons.button;strokeColor=#666666;fontColor=#ffffff;mainText=;buttonStyle=round;fontSize=17;fontStyle=1;fillColor=#008cff;whiteSpace=wrap;" parent="fWF6z8NE7XelfmBL0G0z-1" vertex="1"><mxGeometry x="300" y="1010" width="150" height="50" as="geometry"/></mxCell></root></mxGraphModel></diagram><diagram id="FgowA60DO_MlkAaG_MxM" name="Page-4"><mxGraphModel dx="565" dy="336" grid="1" gridSize="10" guides="1" tooltips="1" connect="1" arrows="1" fold="1" page="1" pageScale="1" pageWidth="827" pageHeight="1169" math="0" shadow="0"><root><mxCell id="dKsW-DLdEE-JTnG4y0Xp-0"/><mxCell id="dKsW-DLdEE-JTnG4y0Xp-1" parent="dKsW-DLdEE-JTnG4y0Xp-0"/><mxCell id="E3rqeYS35zHCpAB2Tywn-0" value="Are you sure,&lt;br&gt;&amp;nbsp;you want to delete this tour?" style="strokeWidth=1;shadow=0;dashed=0;align=center;html=1;shape=mxgraph.mockup.containers.rrect;rSize=0;strokeColor=#666666;fontColor=#666666;fontSize=17;verticalAlign=top;whiteSpace=wrap;fillColor=#ffffff;spacingTop=32;" parent="dKsW-DLdEE-JTnG4y0Xp-1" vertex="1"><mxGeometry x="250" y="150" width="250" height="140" as="geometry"/></mxCell><mxCell id="E3rqeYS35zHCpAB2Tywn-1" value="Delete Tour?" style="strokeWidth=1;shadow=0;dashed=0;align=center;html=1;shape=mxgraph.mockup.containers.rrect;rSize=0;fontSize=17;fontColor=#666666;strokeColor=#666666;align=left;spacingLeft=8;fillColor=none;resizeWidth=1;" parent="E3rqeYS35zHCpAB2Tywn-0" vertex="1"><mxGeometry width="250" height="30" relative="1" as="geometry"/></mxCell><mxCell id="E3rqeYS35zHCpAB2Tywn-2" value="" style="shape=ellipse;strokeColor=#008cff;resizable=0;fillColor=none;html=1;" parent="E3rqeYS35zHCpAB2Tywn-1" vertex="1"><mxGeometry x="1" y="0.5" width="20" height="20" relative="1" as="geometry"><mxPoint x="-25" y="-10" as="offset"/></mxGeometry></mxCell><mxCell id="E3rqeYS35zHCpAB2Tywn-3" value="No" style="strokeWidth=1;shadow=0;dashed=0;align=center;html=1;shape=mxgraph.mockup.containers.rrect;rSize=0;fontSize=16;fontColor=#666666;strokeColor=#c4c4c4;whiteSpace=wrap;fillColor=none;" parent="E3rqeYS35zHCpAB2Tywn-0" vertex="1"><mxGeometry x="0.25" y="1" width="90" height="25" relative="1" as="geometry"><mxPoint x="-45" y="-33" as="offset"/></mxGeometry></mxCell><mxCell id="E3rqeYS35zHCpAB2Tywn-4" value="Yes" style="strokeWidth=1;shadow=0;dashed=0;align=center;html=1;shape=mxgraph.mockup.containers.rrect;rSize=0;fontSize=16;fontColor=#666666;strokeColor=#c4c4c4;whiteSpace=wrap;fillColor=none;" parent="E3rqeYS35zHCpAB2Tywn-0" vertex="1"><mxGeometry x="0.75" y="1" width="90" height="25" relative="1" as="geometry"><mxPoint x="-45" y="-33" as="offset"/></mxGeometry></mxCell><mxCell id="E3rqeYS35zHCpAB2Tywn-5" value="" style="html=1;shadow=0;dashed=0;align=center;verticalAlign=middle;shape=mxgraph.arrows2.arrow;dy=0.6;dx=40;direction=south;notch=0;gradientColor=#ffffff;" parent="dKsW-DLdEE-JTnG4y0Xp-1" vertex="1"><mxGeometry x="320" y="40" width="70" height="100" as="geometry"/></mxCell></root></mxGraphModel></diagram></mxfile>